<svg width="258" height="77" viewBox="0 0 258 77" fill="none" xmlns="http://www.w3.org/2000/svg">
<path d="M86.095 63C88.105 63 89.05 61.68 89.05 60.285C89.05 58.995 88.225 58.005 87.145 57.84C88.12 57.63 88.855 56.79 88.855 55.545C88.855 54.375 87.955 52.995 85.885 52.995H79.81V63H86.095ZM85.18 56.685H82.84V55.515H85.18C85.495 55.515 85.78 55.74 85.78 56.085C85.78 56.445 85.495 56.685 85.18 56.685ZM85.27 60.48H82.84V59.205H85.27C85.705 59.205 85.975 59.49 85.975 59.85C85.975 60.225 85.705 60.48 85.27 60.48ZM97.094 63V58.62C97.094 56.205 95.339 55.575 93.539 55.575C92.444 55.575 91.094 55.89 90.119 56.67L91.034 58.335C91.604 57.9 92.369 57.63 93.044 57.63C93.929 57.63 94.394 58.02 94.394 58.53V59.28C94.004 58.785 93.149 58.485 92.204 58.485C91.124 58.485 89.714 58.995 89.714 60.795C89.714 62.445 91.124 63.18 92.204 63.18C93.104 63.18 93.989 62.82 94.394 62.31V63H97.094ZM93.329 61.425C92.879 61.425 92.384 61.29 92.384 60.84C92.384 60.39 92.879 60.24 93.329 60.24C93.749 60.24 94.214 60.375 94.394 60.63V61.035C94.214 61.29 93.749 61.425 93.329 61.425ZM107.828 55.755V60.66H105.908V55.755H103.208V60.66H101.288V55.755H98.5879V63H110.528V55.755H107.828ZM118.92 63V58.62C118.92 56.205 117.165 55.575 115.365 55.575C114.27 55.575 112.92 55.89 111.945 56.67L112.86 58.335C113.43 57.9 114.195 57.63 114.87 57.63C115.755 57.63 116.22 58.02 116.22 58.53V59.28C115.83 58.785 114.975 58.485 114.03 58.485C112.95 58.485 111.54 58.995 111.54 60.795C111.54 62.445 112.95 63.18 114.03 63.18C114.93 63.18 115.815 62.82 116.22 62.31V63H118.92ZM115.155 61.425C114.705 61.425 114.21 61.29 114.21 60.84C114.21 60.39 114.705 60.24 115.155 60.24C115.575 60.24 116.04 60.375 116.22 60.63V61.035C116.04 61.29 115.575 61.425 115.155 61.425ZM128.347 63V58.095H130.252V55.755H123.712V58.095H125.647V63H128.347ZM133.805 63L136.13 59.565V63H138.83V55.755H136.1L133.925 58.98V55.755H131.225V63H133.805ZM147.941 63V55.755H140.336V63H143.036V58.095H145.241V63H147.941ZM153.017 63.18C155.597 63.18 157.097 61.395 157.097 59.37C157.097 57.345 155.597 55.575 153.017 55.575C150.452 55.575 148.952 57.345 148.952 59.37C148.952 61.395 150.452 63.18 153.017 63.18ZM153.017 60.795C152.192 60.795 151.727 60.18 151.727 59.37C151.727 58.575 152.192 57.96 153.017 57.96C153.857 57.96 154.322 58.575 154.322 59.37C154.322 60.18 153.857 60.795 153.017 60.795ZM163.984 55.755H158.104V63H160.804V58.095H163.984V55.755ZM169.7 63.18C171.5 63.18 172.88 61.86 172.88 59.37C172.88 56.895 171.5 55.575 169.7 55.575C168.95 55.575 168.245 55.83 167.66 56.52V55.755H164.96V65.76H167.66V62.235C168.26 62.925 168.95 63.18 169.7 63.18ZM168.77 60.795C168.425 60.795 167.9 60.6 167.66 60.3V58.455C167.915 58.14 168.425 57.96 168.77 57.96C169.49 57.96 170.12 58.47 170.12 59.37C170.12 60.285 169.49 60.795 168.77 60.795ZM180.766 63V58.62C180.766 56.205 179.011 55.575 177.211 55.575C176.116 55.575 174.766 55.89 173.791 56.67L174.706 58.335C175.276 57.9 176.041 57.63 176.716 57.63C177.601 57.63 178.066 58.02 178.066 58.53V59.28C177.676 58.785 176.821 58.485 175.876 58.485C174.796 58.485 173.386 58.995 173.386 60.795C173.386 62.445 174.796 63.18 175.876 63.18C176.776 63.18 177.661 62.82 178.066 62.31V63H180.766ZM177.001 61.425C176.551 61.425 176.056 61.29 176.056 60.84C176.056 60.39 176.551 60.24 177.001 60.24C177.421 60.24 177.886 60.375 178.066 60.63V61.035C177.886 61.29 177.421 61.425 177.001 61.425ZM184.705 55.575C183.04 55.575 181.765 56.895 181.765 59.385C181.765 61.86 183.04 63.18 184.705 63.18C185.41 63.18 186.055 62.925 186.595 62.235V65.76H189.295V62.235C189.85 62.925 190.48 63.18 191.185 63.18C192.85 63.18 194.125 61.86 194.125 59.37C194.125 56.895 192.85 55.575 191.185 55.575C190.48 55.575 189.835 55.83 189.295 56.52V52.995H186.595V56.52C186.04 55.83 185.41 55.575 184.705 55.575ZM185.635 57.96C185.935 57.96 186.385 58.155 186.595 58.455V60.3C186.37 60.615 185.935 60.795 185.635 60.795C185.02 60.795 184.48 60.285 184.48 59.385C184.48 58.47 185.02 57.96 185.635 57.96ZM190.255 60.795C189.955 60.795 189.505 60.6 189.295 60.3V58.455C189.52 58.14 189.955 57.96 190.255 57.96C190.87 57.96 191.41 58.47 191.41 59.37C191.41 60.285 190.87 60.795 190.255 60.795ZM197.716 63L200.041 59.565V63H202.741V55.755H200.011L197.836 58.98V55.755H195.136V63H197.716ZM207.082 63L208.087 60.84H209.152V63H211.852V55.755H206.872C205.132 55.755 204.097 56.925 204.097 58.29C204.097 59.685 204.967 60.33 205.507 60.57L204.082 63H207.082ZM207.382 58.725C207.052 58.725 206.827 58.545 206.827 58.29C206.827 58.05 207.052 57.87 207.382 57.87H209.152V58.725H207.382Z" fill="#3A4047"/>
<path d="M89.288 44V33.92H96.68C104.168 33.92 108.2 28.928 108.2 22.976C108.2 16.976 104.168 11.984 96.68 11.984H79.592V44H89.288ZM95.432 25.472H89.288V20.432H95.432C97.064 20.432 98.36 21.248 98.36 22.976C98.36 24.656 97.064 25.472 95.432 25.472ZM140.029 44L134.221 32.672C136.765 31.424 139.981 28.496 139.981 22.976C139.981 16.976 135.949 11.984 128.461 11.984H111.373V44H121.069V33.92H124.573L128.989 44H140.029ZM126.973 25.472H121.069V20.432H126.973C128.605 20.432 130.141 21.2 130.141 22.928C130.141 24.704 128.605 25.472 126.973 25.472ZM153.601 44V11.984H143.905V44H153.601ZM189.58 44V11.984H179.884V27.152L168.748 11.984H158.764V44H168.46V27.776L180.268 44H189.58ZM211.324 44V20.432H219.868V11.984H193.036V20.432H201.628V44H211.324ZM247.599 44V35.552H233.007V32.048H247.263V23.6H233.007V20.432H247.599V11.984H223.311V44H247.599Z" fill="#1AB0CE"/>
<path d="M22.3319 40.4553C22.3319 28.0043 32.3324 17.9096 44.666 17.9096C57.0015 17.9096 67 28.0043 67 40.4553C67 52.9064 57.0015 63 44.666 63C32.3324 62.9999 22.3319 52.9063 22.3319 40.4553Z" fill="#4FC2E9"/>
<path d="M0 40.4553C0 28.0043 9.9985 17.9096 22.3319 17.9096C34.6675 17.9096 44.666 28.0043 44.666 40.4553C44.666 52.9064 34.6675 63 22.3319 63C9.99837 62.9999 0 52.9063 0 40.4553Z" fill="#EC87C0"/>
<path d="M33.4999 20.9263C26.8241 24.8255 22.3319 32.1109 22.3319 40.4552C22.3319 48.7985 26.8241 56.0849 33.4999 59.982C40.1739 56.0849 44.666 48.7984 44.666 40.4552C44.666 32.1109 40.1737 24.8255 33.4999 20.9263Z" fill="#5D9CEC"/>
<path d="M33.4999 46.0904C21.1644 46.0904 11.166 35.9967 11.166 23.5468C11.1659 11.0947 21.1644 1 33.4999 1C45.8335 1 55.832 11.0947 55.832 23.5468C55.8319 35.9968 45.8335 46.0904 33.4999 46.0904Z" fill="#FFCE54"/>
<path d="M22.3319 40.4553C22.3319 41.372 22.3891 42.2759 22.4935 43.1676C25.7424 45.0295 29.4985 46.0904 33.4999 46.0904C45.8335 46.0904 55.832 35.9967 55.832 23.5468C55.832 22.6283 55.7768 21.7231 55.6725 20.8346C52.4235 18.9737 48.6673 17.9096 44.666 17.9096C32.3324 17.9095 22.3319 28.0043 22.3319 40.4553Z" fill="#A0D468"/>
<path d="M22.3319 17.9095C18.3305 17.9095 14.5765 18.9736 11.3274 20.8344C11.2211 21.7231 11.1659 22.6282 11.1659 23.5467C11.1659 35.9967 21.1644 46.0903 33.4998 46.0903C37.5012 46.0903 41.2573 45.0294 44.5043 43.1674C44.6106 42.2758 44.6658 41.3717 44.6658 40.4552C44.666 28.0043 34.6675 17.9095 22.3319 17.9095Z" fill="#ED5564"/>
<path d="M34.1337 46.0821C34.3014 46.078 34.469 46.0696 34.6368 46.0615C34.6553 46.0615 34.6736 46.0615 34.6942 46.0574C34.8455 46.0492 34.9947 46.0408 35.1459 46.0284C35.1867 46.0284 35.2298 46.0243 35.2706 46.0202C35.4321 46.0078 35.5938 45.9954 35.7553 45.979C35.788 45.9749 35.8228 45.9708 35.8555 45.9666C35.9925 45.9501 36.1274 45.9376 36.2622 45.9211C36.3052 45.9129 36.3481 45.9087 36.391 45.9046C36.5465 45.884 36.7019 45.8591 36.8553 45.8385C36.9003 45.8303 36.9473 45.822 36.9923 45.8179C37.115 45.7974 37.2355 45.7767 37.3562 45.7561C37.4031 45.7479 37.4502 45.7396 37.4972 45.7312C37.6444 45.7023 37.7896 45.6734 37.9368 45.6446C37.9921 45.6364 38.0473 45.6239 38.1025 45.6115C38.2129 45.5867 38.3212 45.562 38.4296 45.5373C38.4808 45.5291 38.5317 45.5167 38.5829 45.5042C38.7219 45.4712 38.8589 45.4382 38.996 45.401C39.0614 45.3845 39.1248 45.368 39.1902 45.3515C39.2863 45.3266 39.3824 45.2978 39.4784 45.273C39.5664 45.2482 39.6562 45.2236 39.7441 45.1946C39.8423 45.1698 39.9384 45.141 40.0346 45.108C40.1062 45.0873 40.1797 45.0625 40.2513 45.0419C40.3331 45.013 40.417 44.9882 40.4987 44.9593C40.6111 44.9222 40.7236 44.885 40.836 44.8437C40.9076 44.8188 40.9771 44.7941 41.0487 44.7694C41.1284 44.7406 41.2083 44.7117 41.2859 44.6829C41.3534 44.658 41.4189 44.6333 41.4843 44.6044C41.6151 44.5548 41.746 44.5053 41.8767 44.4516C41.9299 44.4268 41.9851 44.4062 42.0382 44.3815C42.1241 44.3484 42.21 44.3113 42.2939 44.2742C42.3287 44.2577 42.3634 44.2452 42.3982 44.2287C42.5577 44.1586 42.7172 44.0884 42.8746 44.0141C42.9196 43.9935 42.9624 43.9729 43.0075 43.9522C43.2877 43.8159 43.5658 43.6755 43.8397 43.531C43.8764 43.5145 43.9132 43.4939 43.9501 43.4732C44.134 43.3741 44.3161 43.275 44.4982 43.1718C44.5003 43.1677 44.5022 43.1677 44.5043 43.1677C44.6106 42.276 44.6658 41.3719 44.6658 40.4554C44.6658 32.1112 40.1737 24.8257 33.4998 20.9265C26.8239 24.8257 22.3318 32.1112 22.3318 40.4554C22.3318 41.3721 22.389 42.276 22.4933 43.1677C22.5014 43.1718 22.5118 43.1759 22.5199 43.1801C22.6937 43.2792 22.8695 43.3783 23.0474 43.4733C23.0842 43.4939 23.123 43.5145 23.1598 43.5353C23.4338 43.6797 23.7098 43.8159 23.9899 43.9481C24.0348 43.9729 24.0798 43.9935 24.1249 44.0141C24.2783 44.0842 24.4336 44.1545 24.589 44.2246C24.6279 44.2411 24.6667 44.2577 24.7056 44.2742C24.7895 44.3113 24.8733 44.3484 24.9591 44.3815C25.0144 44.4063 25.0696 44.4269 25.1247 44.4516C25.2515 44.5053 25.3824 44.5548 25.5112 44.6044C25.5788 44.6292 25.6442 44.658 25.7116 44.6829C25.7913 44.7118 25.8712 44.7407 25.9509 44.7694C26.0204 44.7943 26.092 44.819 26.1636 44.8437C26.2739 44.8849 26.3865 44.9222 26.4989 44.9593C26.5807 44.9882 26.6645 45.013 26.7484 45.0419C26.8199 45.0667 26.8915 45.0873 26.9652 45.108C27.0612 45.141 27.1573 45.1699 27.2555 45.1989C27.3434 45.2237 27.4312 45.2483 27.5192 45.2731C27.6153 45.298 27.7114 45.3268 27.8095 45.3516C27.8729 45.3681 27.9383 45.3846 28.0038 45.4012C28.1387 45.4383 28.2777 45.4713 28.4148 45.5044C28.4658 45.5168 28.517 45.5292 28.568 45.5374C28.6785 45.5622 28.7867 45.587 28.8952 45.6117C28.9505 45.6241 29.0077 45.6365 29.0629 45.6447C29.2081 45.6736 29.3553 45.7026 29.5005 45.7314C29.5475 45.7396 29.5945 45.7479 29.6416 45.7562C29.7623 45.7768 29.8849 45.7974 30.0075 45.8181C30.0526 45.8222 30.0976 45.8305 30.1425 45.8387C30.298 45.8593 30.4513 45.8841 30.6066 45.9047C30.6496 45.9088 30.6945 45.9129 30.7375 45.9213C30.8725 45.9378 31.0074 45.9502 31.1424 45.9667C31.1772 45.9708 31.2099 45.9749 31.2446 45.9791C31.4061 45.9956 31.5655 46.0081 31.7291 46.0204C31.77 46.0245 31.8109 46.0286 31.8518 46.0286C32.0031 46.041 32.1544 46.0492 32.3057 46.0575C32.3242 46.0616 32.3446 46.0616 32.3629 46.0616C32.5306 46.0698 32.6982 46.0781 32.8659 46.0822C32.9067 46.0822 32.9456 46.0822 32.9865 46.0863C33.1562 46.0904 33.3279 46.0904 33.4997 46.0904C33.6715 46.0904 33.8412 46.0904 34.0109 46.0863C34.0519 46.0821 34.0927 46.0821 34.1337 46.0821Z" fill="#434A54"/>
</svg>
